<?xml version="1.0" encoding="UTF-8" standalone="no"?><!DOCTYPE svg PUBLIC "-//W3C//DTD SVG 1.1//EN" "http://www.w3.org/Graphics/SVG/1.1/DTD/svg11.dtd"><!-- Generated by graphviz version 2.40.1 (20161225.0304)
 --><!-- Title: G Pages: 1 --><svg xmlns="http://www.w3.org/2000/svg" xmlns:xlink="http://www.w3.org/1999/xlink" width="1783pt" height="633pt" viewBox="0.00 0.00 1783.00 632.87">
<g id="graph0" class="graph" transform="scale(1 1) rotate(0) translate(4 602)">
<title>G</title>
<polygon fill="#ffffff" stroke="transparent" points="-4,30.8749 -4,-602 1779,-602 1779,30.8749 -4,30.8749"/>
<g id="clust1" class="cluster">
<title>cluster_Time_t</title>
<polygon fill="none" stroke="#0000ff" stroke-width="3" points="76.693,-345.1353 76.693,-432.1353 342.693,-432.1353 342.693,-345.1353 76.693,-345.1353"/>
<text text-anchor="middle" x="209.693" y="-411.9353" font-family="Times,serif" font-size="18.00" fill="#ff0000">Receivers_g.Time_t</text>
</g>
<g id="clust2" class="cluster">
<title>cluster_Receiver_t</title>
<polygon fill="none" stroke="#0000ff" stroke-width="3" points="1471.7173,-156.9355 1471.7173,-243.9355 1774.7173,-243.9355 1774.7173,-156.9355 1471.7173,-156.9355"/>
<text text-anchor="middle" x="1623.2173" y="-223.7355" font-family="Times,serif" font-size="18.00" fill="#ff0000">Receivers_g.Receiver_t</text>
</g>
<g id="clust3" class="cluster">
<title>cluster_Response_t</title>
<polygon fill="none" stroke="#0000ff" stroke-width="3" points="1028.0077,-.3238 1028.0077,-87.3238 1223.0077,-87.3238 1223.0077,-.3238 1028.0077,-.3238"/>
<text text-anchor="middle" x="1125.5077" y="-67.1238" font-family="Times,serif" font-size="18.00" fill="#ff0000">Response_g.Response_t</text>
</g>
<g id="clust4" class="cluster">
<title>cluster_Event_t</title>
<polygon fill="none" stroke="#0000ff" stroke-width="3" points="1167.5644,-510.9446 1167.5644,-597.9446 1333.5644,-597.9446 1333.5644,-510.9446 1167.5644,-510.9446"/>
<text text-anchor="middle" x="1250.5644" y="-577.7446" font-family="Times,serif" font-size="18.00" fill="#ff0000">Sorts_g.Event_t</text>
</g>
<g id="clust5" class="cluster">
<title>cluster_Data_a</title>
<polygon fill="none" stroke="#0000ff" stroke-width="3" points="1080.6162,-343.1097 1080.6162,-430.1097 1365.6162,-430.1097 1365.6162,-343.1097 1080.6162,-343.1097"/>
<text text-anchor="middle" x="1223.1162" y="-409.9097" font-family="Times,serif" font-size="18.00" fill="#ff0000">Receivers_g.Das_g_XXXXX.Data_a</text>
</g>
<g id="clust6" class="cluster">
<title>cluster_Das_t</title>
<polygon fill="none" stroke="#0000ff" stroke-width="3" points="427.3399,-290.5032 427.3399,-464.5032 1069.3399,-464.5032 1069.3399,-290.5032 427.3399,-290.5032"/>
<text text-anchor="middle" x="748.3399" y="-444.3032" font-family="Times,serif" font-size="18.00" fill="#ff0000">Receivers_g.Das_g_XXXXX.Das_t</text>
</g>
<g id="clust7" class="cluster">
<title>cluster_Array_t</title>
<polygon fill="none" stroke="#0000ff" stroke-width="3" points="300.5471,-13.7298 300.5471,-100.7298 938.5471,-100.7298 938.5471,-13.7298 300.5471,-13.7298"/>
<text text-anchor="middle" x="619.5471" y="-80.5298" font-family="Times,serif" font-size="18.00" fill="#ff0000">Array_t_XXX</text>
</g>
<g id="clust8" class="cluster">
<title>cluster_Offset_t</title>
<polygon fill="none" stroke="#0000ff" stroke-width="3" points="1343.5645,-510.9443 1343.5645,-597.9443 1582.5645,-597.9443 1582.5645,-510.9443 1343.5645,-510.9443"/>
<text text-anchor="middle" x="1463.0645" y="-577.7443" font-family="Times,serif" font-size="18.00" fill="#ff0000">Sorts_g.Offset_t_XXX_YYY</text>
</g>
<g id="clust9" class="cluster">
<title>cluster_Sort_t</title>
<polygon fill="none" stroke="#0000ff" stroke-width="3" points="-.1419,-18.7199 -.1419,-105.7199 269.8581,-105.7199 269.8581,-18.7199 -.1419,-18.7199"/>
<text text-anchor="middle" x="134.8581" y="-85.5199" font-family="Times,serif" font-size="18.00" fill="#ff0000">Sorts_g.Sort_t</text>
</g>
<!-- Das_t.array_name_data_a&#45;&gt;data -->
<g id="edge8" class="edge">
<title>Das_t.array_name_data_a-&gt;data</title>
<path fill="none" stroke="#000000" stroke-width="5" d="M798.4603,-423.3261C1018.5064,-463.0806 1049.4462,-458.5216 1188.3906,-389.5179"/>
<polygon fill="#000000" stroke="#000000" stroke-width="5" points="1190.7019,-393.2544 1197.7019,-384.8794 1186.8002,-385.4224 1190.7019,-393.2544"/>
</g>
<!-- Das_t.receiver_table_n_i&#45;&gt;Receiver_t.implied_index -->
<g id="edge1" class="edge">
<title>Das_t.receiver_table_n_i-&gt;Receiver_t.implied_index</title>
<path fill="none" stroke="#000000" stroke-width="5" d="M1006.1008,-350.0019C1371.7921,-276.7655 1421.9701,-264.9133 1564.0388,-209.2944"/>
<polygon fill="#000000" stroke="#000000" stroke-width="5" points="1565.8245,-213.2935 1573.5339,-205.5665 1562.6267,-205.1488 1565.8245,-213.2935"/>
</g>
<!-- Das_t.response_table_n_i&#45;&gt;Response_t.n_i -->
<g id="edge3" class="edge">
<title>Das_t.response_table_n_i-&gt;Response_t.n_i</title>
<path fill="none" stroke="#000000" stroke-width="5" d="M786.4608,-298.9052C957.3112,-120.8124 984.8282,-94.013 1074.7615,-52.4837"/>
<polygon fill="#000000" stroke="#000000" stroke-width="5" points="1076.684,-56.4153 1083.961,-48.2798 1073.0472,-48.4569 1076.684,-56.4153"/>
</g>
<!-- Das_t.time_table_n_i&#45;&gt;Time_t.implied_index -->
<g id="edge6" class="edge">
<title>Das_t.time_table_n_i-&gt;Time_t.implied_index</title>
<path fill="none" stroke="#000000" stroke-width="5" d="M443.8708,-365.7938C400.2934,-368.7804 369.2504,-370.7736 344.2504,-372.0699"/>
<polygon fill="#000000" stroke="#000000" stroke-width="5" points="344.0149,-367.7011 334.2442,-372.5667 344.4489,-376.4403 344.0149,-367.7011"/>
</g>
<!-- Array_t.receiver_table_n_i&#45;&gt;Receiver_t.implied_index -->
<g id="edge2" class="edge">
<title>Array_t.receiver_table_n_i-&gt;Receiver_t.implied_index</title>
<path fill="none" stroke="#000000" stroke-width="5" d="M560.4589,-27.4347C1168.1927,62.528 1209.2071,54.8917 1579.4496,-160.409"/>
<polygon fill="#000000" stroke="#000000" stroke-width="5" points="1577.4135,-164.286 1588.2572,-165.5336 1581.8139,-156.723 1577.4135,-164.286"/>
</g>
<!-- Array_t.response_table_n_i&#45;&gt;Response_t.n_i -->
<g id="edge4" class="edge">
<title>Array_t.response_table_n_i-&gt;Response_t.n_i</title>
<path fill="none" stroke="#000000" stroke-width="5" d="M830.103,-22.8386C949.7455,22.4353 977.9474,25.355 1069.7879,-8.2872"/>
<polygon fill="#000000" stroke="#000000" stroke-width="5" points="1068.2828,-12.3951 1079.1801,-11.7694 1071.3247,-4.1908 1068.2828,-12.3951"/>
</g>
<!-- Offset_t.event_id_s&#45;&gt;Event_t.id_s -->
<g id="edge5" class="edge">
<title>Offset_t.event_id_s-&gt;Event_t.id_s</title>
<path fill="none" stroke="#000000" stroke-width="5" d="M1386.7277,-555.118C1371.7521,-555.2989 1353.9332,-553.8075 1328.2317,-550.6509"/>
<polygon fill="#000000" stroke="#000000" stroke-width="5" points="1328.4535,-546.2693 1317.9849,-549.3596 1327.3594,-554.9507 1328.4535,-546.2693"/>
</g>
<!-- Sort_t.array_t_name_s&#45;&gt;Array_t.receiver_table_n_i -->
<g id="edge7" class="edge">
<title>Sort_t.array_t_name_s-&gt;Array_t.receiver_table_n_i</title>
<path fill="none" stroke="#000000" stroke-width="5" d="M208.2042,-30.6586C238.5506,-25.8381 268.1644,-25.8212 323.7173,-30.1867"/>
<polygon fill="#000000" stroke="#000000" stroke-width="5" points="323.6895,-34.5737 334.01,-31.0203 324.3959,-25.8522 323.6895,-34.5737"/>
</g>
<!-- Time_t.implied_index -->
<g id="node1" class="node">
<title>Time_t.implied_index</title>
<ellipse fill="#d3d3d3" stroke="#000000" cx="209.436" cy="-373.793" rx="124.587" ry="20.861"/>
<text text-anchor="middle" x="209.436" y="-368.393" font-family="Times,serif" font-size="18.00" fill="#000000">Time_t.implied_index</text>
</g>
<!-- Receiver_t.implied_index -->
<g id="node2" class="node">
<title>Receiver_t.implied_index</title>
<ellipse fill="#d3d3d3" stroke="#000000" cx="1623.1703" cy="-185.8809" rx="143.3119" ry="20.861"/>
<text text-anchor="middle" x="1623.1703" y="-180.4809" font-family="Times,serif" font-size="18.00" fill="#000000">Receiver_t.implied_index</text>
</g>
<!-- Response_t.n_i -->
<g id="node3" class="node">
<title>Response_t.n_i</title>
<ellipse fill="#d3d3d3" stroke="#000000" cx="1125.856" cy="-29.7343" rx="89.3831" ry="20.861"/>
<text text-anchor="middle" x="1125.856" y="-24.3343" font-family="Times,serif" font-size="18.00" fill="#000000">Response_t.n_i</text>
</g>
<!-- Event_t.id_s -->
<g id="node4" class="node">
<title>Event_t.id_s</title>
<ellipse fill="#d3d3d3" stroke="#000000" cx="1250.3679" cy="-540.0964" rx="75.1046" ry="20.861"/>
<text text-anchor="middle" x="1250.3679" y="-534.6964" font-family="Times,serif" font-size="18.00" fill="#000000">Event_t.id_s</text>
</g>
<!-- data -->
<g id="node5" class="node">
<title>data</title>
<ellipse fill="#d3d3d3" stroke="#000000" cx="1223.4173" cy="-371.9836" rx="32.5292" ry="20.861"/>
<text text-anchor="middle" x="1223.4173" y="-366.5836" font-family="Times,serif" font-size="18.00" fill="#000000">data</text>
</g>
<!-- Das_t.array_name_data_a -->
<g id="node6" class="node">
<title>Das_t.array_name_data_a</title>
<ellipse fill="#d3d3d3" stroke="#000000" cx="708.975" cy="-406.8403" rx="143.6611" ry="20.861"/>
<text text-anchor="middle" x="708.975" y="-401.4403" font-family="Times,serif" font-size="18.00" fill="#000000">Das_t.array_name_data_a</text>
</g>
<!-- Das_t.receiver_table_n_i -->
<g id="node7" class="node">
<title>Das_t.receiver_table_n_i</title>
<ellipse fill="#d3d3d3" stroke="#000000" cx="922.4673" cy="-366.7319" rx="138.7816" ry="20.861"/>
<text text-anchor="middle" x="922.4673" y="-361.3319" font-family="Times,serif" font-size="18.00" fill="#000000">Das_t.receiver_table_n_i</text>
</g>
<!-- Das_t.response_table_n_i -->
<g id="node8" class="node">
<title>Das_t.response_table_n_i</title>
<ellipse fill="#d3d3d3" stroke="#000000" cx="766.5525" cy="-319.6627" rx="142.3888" ry="20.861"/>
<text text-anchor="middle" x="766.5525" y="-314.2627" font-family="Times,serif" font-size="18.00" fill="#000000">Das_t.response_table_n_i</text>
</g>
<!-- Das_t.time_table_n_i -->
<g id="node9" class="node">
<title>Das_t.time_table_n_i</title>
<ellipse fill="#d3d3d3" stroke="#000000" cx="555.7446" cy="-357.9805" rx="120.5818" ry="20.861"/>
<text text-anchor="middle" x="555.7446" y="-352.5805" font-family="Times,serif" font-size="18.00" fill="#000000">Das_t.time_table_n_i</text>
</g>
<!-- Array_t.receiver_table_n_i -->
<g id="node10" class="node">
<title>Array_t.receiver_table_n_i</title>
<ellipse fill="#d3d3d3" stroke="#000000" cx="457.7789" cy="-42.7151" rx="148.5585" ry="20.861"/>
<text text-anchor="middle" x="457.7789" y="-37.3151" font-family="Times,serif" font-size="18.00" fill="#000000">Array_t.receiver_table_n_i</text>
</g>
<!-- Array_t.response_table_n_i -->
<g id="node11" class="node">
<title>Array_t.response_table_n_i</title>
<ellipse fill="#d3d3d3" stroke="#000000" cx="778.3112" cy="-42.7151" rx="152.1656" ry="20.861"/>
<text text-anchor="middle" x="778.3112" y="-37.3151" font-family="Times,serif" font-size="18.00" fill="#000000">Array_t.response_table_n_i</text>
</g>
<!-- Offset_t.event_id_s -->
<g id="node12" class="node">
<title>Offset_t.event_id_s</title>
<ellipse fill="#d3d3d3" stroke="#000000" cx="1462.7611" cy="-539.7925" rx="111.18" ry="20.861"/>
<text text-anchor="middle" x="1462.7611" y="-534.3925" font-family="Times,serif" font-size="18.00" fill="#000000">Offset_t.event_id_s</text>
</g>
<!-- Sort_t.array_t_name_s -->
<g id="node13" class="node">
<title>Sort_t.array_t_name_s</title>
<ellipse fill="#d3d3d3" stroke="#000000" cx="134.901" cy="-47.816" rx="126.7844" ry="20.861"/>
<text text-anchor="middle" x="134.901" y="-42.416" font-family="Times,serif" font-size="18.00" fill="#000000">Sort_t.array_t_name_s</text>
</g>
</g>
</svg>